<svg width="83" height="82" viewBox="0 0 83 82" fill="none" xmlns="http://www.w3.org/2000/svg">
<path d="M68.8971 51.1258V74.2167H1.65344V7.7832H68.8971V51.1258Z" fill="#C7EBFF"/>
<path d="M34.6046 61.7249C33.3788 61.7249 32.1532 61.2629 31.218 60.339L14.9339 44.2512C13.0635 42.4034 13.0635 39.4074 14.9339 37.5595C16.8045 35.7117 19.8367 35.7117 21.7073 37.5595L34.6046 50.3015L73.1736 12.1974C75.0441 10.3496 78.0764 10.3496 79.9469 12.1974C81.8173 14.0452 81.8173 17.0413 79.9469 18.8891L37.9914 60.3392C37.056 61.2629 35.8305 61.7249 34.6046 61.7249Z" fill="#50A5DC"/>
<path d="M68.8971 49.4923C67.9841 49.4923 67.2437 50.2236 67.2437 51.1258V72.5832H3.30689V9.41671H68.8971C69.8101 9.41671 70.5506 8.68538 70.5506 7.78318C70.5506 6.88099 69.8101 6.14966 68.8971 6.14966H1.65345C0.740413 6.14966 0 6.88099 0 7.78318V74.2167C0 75.1189 0.740413 75.8502 1.65345 75.8502H68.8971C69.8101 75.8502 70.5506 75.1189 70.5506 74.2167V51.1258C70.5506 50.2236 69.8101 49.4923 68.8971 49.4923Z" fill="black"/>
<path d="M68.8971 37.5681C67.9841 37.5681 67.2437 38.2994 67.2437 39.2016V43.555C67.2437 44.4572 67.9841 45.1885 68.8971 45.1885C69.8101 45.1885 70.5505 44.4572 70.5505 43.555V39.2016C70.5505 38.2994 69.8101 37.5681 68.8971 37.5681Z" fill="black"/>
<path d="M81.1159 11.0421C78.6038 8.56082 74.5165 8.56082 72.0044 11.0421L34.6047 47.9913L22.8763 36.4042C20.3645 33.9228 16.2769 33.9226 13.7648 36.4042C11.2529 38.8861 11.2529 42.9243 13.7648 45.406L30.0489 61.4939C31.2657 62.696 32.8838 63.3582 34.6047 63.3582C36.3256 63.3582 37.9435 62.6962 39.1606 61.4939L81.1161 20.0438C83.628 17.5624 83.628 13.5241 81.1159 11.0421ZM78.7776 17.734L36.8223 59.1839C36.2298 59.769 35.4423 60.0913 34.6047 60.0913C33.767 60.0913 32.9795 59.769 32.3872 59.1839L16.1033 43.096C14.8805 41.888 14.8805 39.9224 16.1031 38.7144C16.7145 38.1103 17.5176 37.8084 18.3207 37.8084C19.1236 37.8084 19.9269 38.1105 20.5381 38.7142L33.4355 51.4564C33.7457 51.7626 34.1662 51.9348 34.6047 51.9348C35.0432 51.9348 35.4636 51.7626 35.7738 51.4564L74.3426 13.3526C75.5655 12.1448 77.5549 12.1446 78.7776 13.3526C80.0003 14.5604 80.0003 16.5261 78.7776 17.734Z" fill="black"/>
</svg>
