<svg width="101" height="101" viewBox="0 0 101 101" fill="none" xmlns="http://www.w3.org/2000/svg">
<path d="M18.9375 71.9626C22.877 71.9626 26.3471 73.9677 28.3855 77.0126H50.5H65.65V36.6126V29.0376H44.1875H40.4V44.1876L32.825 36.6126L25.25 44.1876V29.0376H21.4625H0V56.8126H7.575V64.3876V71.9626H0V77.0126H9.48946C11.5279 73.9677 14.998 71.9626 18.9375 71.9626Z" fill="#CCF8F3"/>
<path d="M85.85 36.6125H65.65V77.0126H72.6145C74.6529 73.9677 78.123 71.9625 82.0625 71.9625C86.002 71.9625 89.4721 73.9677 91.5106 77.0126H101V71.9625H95.95L93.425 64.3875H101V59.3375L85.85 36.6125ZM73.225 59.3375V44.1875H81.7959L91.8959 59.3375H73.225Z" fill="#00D7DF"/>
<path d="M73.225 44.1875V59.3375H91.8958L81.7958 44.1875H73.225Z" fill="white"/>
<path d="M28.3856 77.0125C29.5943 78.8178 30.3 80.9888 30.3 83.325C30.3 83.7519 30.2743 84.1726 30.2286 84.5875H50.5V77.0125H28.3856Z" fill="#786145"/>
<path d="M72.6145 77.0125H65.65H50.5V84.5875H70.7715C70.7255 84.1726 70.7 83.7519 70.7 83.325C70.7 80.9888 71.4057 78.8178 72.6145 77.0125Z" fill="#50412E"/>
<path d="M15.15 83.3249C15.15 81.2332 16.8458 79.5374 18.9375 79.5374V71.9624C14.998 71.9624 11.5279 73.9675 9.48946 77.0124H0V84.5874H7.64646C8.27468 90.2684 13.0891 94.6874 18.9375 94.6874V87.1124C16.8458 87.1124 15.15 85.4166 15.15 83.3249Z" fill="#786145"/>
<path d="M28.3855 77.0124C26.3471 73.9675 22.877 71.9624 18.9375 71.9624V79.5374C21.0292 79.5374 22.725 81.2332 22.725 83.3249C22.725 85.4166 21.0292 87.1124 18.9375 87.1124V94.6874C24.7859 94.6874 29.6003 90.2684 30.2285 84.5874C30.2745 84.1725 30.3 83.7519 30.3 83.3249C30.3 80.9888 29.5943 78.8178 28.3855 77.0124Z" fill="#50412E"/>
<path d="M78.275 83.3249C78.275 81.2332 79.9708 79.5374 82.0625 79.5374V71.9624C78.123 71.9624 74.6529 73.9675 72.6145 77.0124C71.4057 78.8178 70.7 80.9888 70.7 83.3249C70.7 83.7519 70.7258 84.1725 70.7715 84.5874C71.3997 90.2684 76.2141 94.6874 82.0625 94.6874V87.1124C79.9708 87.1124 78.275 85.4166 78.275 83.3249Z" fill="#786145"/>
<path d="M82.0625 71.9624V79.5374C84.1542 79.5374 85.85 81.2332 85.85 83.3249C85.85 85.4166 84.1542 87.1124 82.0625 87.1124V94.6874C87.9109 94.6874 92.7251 90.2684 93.3535 84.5874H101V77.0124H91.5105C89.4721 73.9675 86.002 71.9624 82.0625 71.9624Z" fill="#50412E"/>
<path d="M18.9375 87.1126C21.0293 87.1126 22.725 85.4169 22.725 83.3251C22.725 81.2333 21.0293 79.5376 18.9375 79.5376C16.8457 79.5376 15.15 81.2333 15.15 83.3251C15.15 85.4169 16.8457 87.1126 18.9375 87.1126Z" fill="white"/>
<path d="M82.0625 87.1126C84.1543 87.1126 85.85 85.4169 85.85 83.3251C85.85 81.2333 84.1543 79.5376 82.0625 79.5376C79.9707 79.5376 78.275 81.2333 78.275 83.3251C78.275 85.4169 79.9707 87.1126 82.0625 87.1126Z" fill="white"/>
<path d="M7.575 64.3875H0V71.9625H7.575V64.3875Z" fill="#FF9811"/>
<path d="M7.575 56.8125H0V64.3875H7.575V56.8125Z" fill="#00D7DF"/>
<path d="M95.95 71.9625H101V64.3875H93.425L95.95 71.9625Z" fill="#FF9811"/>
<path d="M44.1875 29.0375C50.4631 29.0375 55.55 23.9504 55.55 17.675C55.55 11.3996 50.4631 6.3125 44.1875 6.3125C37.9118 6.3125 32.825 11.3996 32.825 17.675C32.825 11.3996 27.7381 6.3125 21.4625 6.3125C15.1868 6.3125 10.1 11.3996 10.1 17.675C10.1 23.9504 15.1868 29.0375 21.4625 29.0375H44.1875ZM40.4 17.675C40.4 15.5866 42.099 13.8875 44.1875 13.8875C46.2759 13.8875 47.975 15.5866 47.975 17.675C47.975 19.7634 46.2759 21.4625 44.1875 21.4625H40.4V17.675ZM17.675 17.675C17.675 15.5866 19.374 13.8875 21.4625 13.8875C23.5509 13.8875 25.25 15.5866 25.25 17.675V21.4625H21.4625C19.374 21.4625 17.675 19.7634 17.675 17.675Z" fill="#FFDA44"/>
<path d="M25.25 29.0376V44.1876L32.825 36.6126L40.4 44.1876V29.0376H32.825H25.25Z" fill="#FF9811"/>
</svg>
