<svg width="91" height="89" viewBox="0 0 91 89" fill="none" xmlns="http://www.w3.org/2000/svg">
<g clip-path="url(#clip0_58_26)">
<path d="M45.1474 73.7181C61.4539 73.7181 74.673 60.6368 74.673 44.5001C74.673 28.3634 61.4539 15.282 45.1474 15.282C28.8408 15.282 15.6217 28.3634 15.6217 44.5001C15.6217 60.6368 28.8408 73.7181 45.1474 73.7181Z" fill="#FFC850"/>
<path d="M45.1474 69.1046C58.8792 69.1046 70.011 58.0887 70.011 44.4999C70.011 30.9111 58.8792 19.8953 45.1474 19.8953C31.4155 19.8953 20.2837 30.9111 20.2837 44.4999C20.2837 58.0887 31.4155 69.1046 45.1474 69.1046Z" fill="#FFDC64"/>
<path d="M57.5792 38.3489C60.1539 38.3489 62.2412 36.2834 62.2412 33.7355C62.2412 31.1876 60.1539 29.1221 57.5792 29.1221C55.0045 29.1221 52.9172 31.1876 52.9172 33.7355C52.9172 36.2834 55.0045 38.3489 57.5792 38.3489Z" fill="#FFF082"/>
<path d="M52.4163 56.5031C43.0427 54.9482 35.6202 47.3324 34.4419 37.9996C34.0196 34.6546 34.3887 31.4487 35.3754 28.5204C35.8621 27.0754 34.1874 25.8591 32.9151 26.7162C26.394 31.1089 22.4086 38.9068 23.6021 47.537C24.9235 57.0937 32.8211 64.7416 42.5011 65.8741C49.815 66.7297 56.4998 63.9838 61.0158 59.2012C62.0717 58.083 61.1389 56.2463 59.614 56.5027C57.3214 56.8881 54.9061 56.9161 52.4163 56.5031Z" fill="#FFC850"/>
<path d="M45.1474 75.1597C62.2313 75.1597 76.1299 61.4059 76.1299 44.4999C76.1299 27.5939 62.2313 13.8401 45.1474 13.8401C28.0634 13.8401 14.1648 27.5939 14.1648 44.4999C14.1648 61.4059 28.0634 75.1597 45.1474 75.1597ZM45.1474 16.7234C60.6246 16.7234 73.2163 29.1837 73.2163 44.4999C73.2163 59.8161 60.6246 72.2764 45.1474 72.2764C29.6701 72.2764 17.0785 59.8159 17.0785 44.4999C17.0785 29.1839 29.6701 16.7234 45.1474 16.7234Z" fill="black"/>
<path d="M35.7263 52.2851C35.7263 51.489 35.0741 50.8434 34.2694 50.8434C33.4647 50.8434 32.8125 51.4888 32.8125 52.2851C32.8125 56.1886 37.4852 59.305 43.6905 59.7305V61.4158C43.6905 62.2119 44.3427 62.8575 45.1474 62.8575C45.9521 62.8575 46.6043 62.2121 46.6043 61.4158V59.7305C52.8096 59.305 57.4822 56.1886 57.4822 52.2851C57.4822 47.0557 52.4576 45.0151 46.6043 43.3994V32.1595C51.3643 32.5381 54.5684 34.7295 54.5684 36.715C54.5684 37.5111 55.2206 38.1567 56.0253 38.1567C56.83 38.1567 57.4822 37.5113 57.4822 36.715C57.4822 32.8115 52.8096 29.6951 46.6043 29.2696V27.5843C46.6043 26.7882 45.9521 26.1426 45.1474 26.1426C44.3427 26.1426 43.6905 26.788 43.6905 27.5843V29.2696C37.4852 29.6951 32.8125 32.8115 32.8125 36.715C32.8125 41.9444 37.8372 43.985 43.6905 45.6007V56.8406C38.9305 56.462 35.7263 54.2706 35.7263 52.2851ZM54.5684 52.2851C54.5684 54.2706 51.3643 56.462 46.6043 56.8406V46.4022C52.5131 48.1301 54.5684 49.6991 54.5684 52.2851ZM35.7263 36.715C35.7263 34.7295 38.9305 32.5381 43.6905 32.1595V42.5978C37.7817 40.87 35.7263 39.301 35.7263 36.715Z" fill="black"/>
<path d="M76.9448 13.0338C68.4516 4.6287 57.1589 0 45.1474 0C32.2163 0 20.1425 5.38433 11.6039 14.8623L12.4019 9.33457C12.5156 8.54626 11.9621 7.81618 11.1657 7.70354C10.3689 7.59194 9.6313 8.13881 9.51747 8.92694L7.96342 19.6916C7.89211 20.1861 8.08463 20.6821 8.47213 21.0024C8.73808 21.222 9.06937 21.3372 9.40593 21.3372C9.56015 21.3372 9.71579 21.3131 9.8665 21.2632L19.1904 18.1876C19.9538 17.9358 20.3663 17.1195 20.1119 16.364C19.8572 15.6085 19.0325 15.2001 18.2691 15.4521L13.5847 16.9974C21.5806 7.99974 32.9571 2.88329 45.1474 2.88329C56.3805 2.88329 66.9414 7.21213 74.8847 15.0725C82.8278 22.933 87.2022 33.3839 87.2022 44.5C87.2022 55.6161 82.8278 66.067 74.8847 73.9275C66.9414 81.7879 56.3807 86.1167 45.1474 86.1167C44.3429 86.1167 43.6905 86.7621 43.6905 87.5584C43.6905 88.3548 44.3429 89 45.1474 89C57.1589 89 68.4516 84.3713 76.9448 75.9662C85.438 67.5611 90.1158 56.3864 90.1158 44.5C90.1158 32.6136 85.4384 21.4386 76.9448 13.0338Z" fill="black"/>
<path d="M39.1379 85.695C38.6426 85.6248 38.1437 85.5453 37.6552 85.4584C36.863 85.3171 36.1059 85.8384 35.9635 86.6222C35.821 87.4058 36.3474 88.1554 37.1395 88.2963C37.6622 88.3893 38.1959 88.4745 38.7253 88.5494C38.7952 88.5593 38.8648 88.5642 38.9335 88.5642C39.6466 88.5642 40.2699 88.0453 40.3739 87.3267C40.4875 86.5382 39.9344 85.808 39.1379 85.695Z" fill="black"/>
<path d="M32.0177 84.0487C31.1006 83.7507 30.1819 83.4166 29.2869 83.0558C28.5421 82.7557 27.6917 83.1095 27.3878 83.847C27.0843 84.5844 27.4423 85.4257 28.1874 85.7263C29.145 86.1122 30.1278 86.4696 31.109 86.7884C31.2599 86.8374 31.413 86.8607 31.5638 86.8607C32.1761 86.8607 32.7461 86.4755 32.9478 85.8683C33.1984 85.1115 32.7821 84.2971 32.0177 84.0487Z" fill="black"/>
<path d="M4.0596 53.4157C3.85391 52.4826 3.6786 51.53 3.5386 50.5844C3.42179 49.7964 2.68262 49.252 1.88619 49.3669C1.08993 49.4821 0.539069 50.2145 0.655881 51.0021C0.805718 52.0134 0.992969 53.0322 1.21307 54.0302C1.36185 54.7046 1.96506 55.1649 2.63502 55.1649C2.73795 55.1649 2.84247 55.1541 2.94699 55.1315C3.73288 54.9617 4.23122 54.1936 4.0596 53.4157Z" fill="black"/>
<path d="M2.20149 37.3888C2.29845 37.4081 2.39471 37.4173 2.48992 37.4173C3.16954 37.4173 3.77784 36.944 3.91661 36.2593C4.10685 35.322 4.33292 34.3795 4.58833 33.4584C4.80123 32.6906 4.34487 31.8974 3.56899 31.6867C2.79381 31.4761 1.99158 31.9278 1.77868 32.6958C1.50536 33.6809 1.26365 34.6889 1.06024 35.6916C0.901621 36.4721 1.41261 37.2322 2.20149 37.3888Z" fill="black"/>
<path d="M6.79389 61.5975C6.3969 60.727 6.02591 59.8314 5.69111 58.9358C5.41199 58.1891 4.57375 57.8075 3.8193 58.0839C3.06467 58.3601 2.67928 59.1894 2.9584 59.9362C3.31639 60.894 3.7132 61.852 4.13794 62.7835C4.38123 63.317 4.91137 63.6325 5.4668 63.6325C5.66705 63.6325 5.87063 63.5913 6.06509 63.5046C6.79863 63.1771 7.12465 62.3232 6.79389 61.5975Z" fill="black"/>
<path d="M1.64886 46.2998C2.45337 46.2936 3.1005 45.6429 3.09417 44.8468C3.09312 44.7308 3.09259 44.6149 3.09259 44.5C3.09259 43.6569 3.11841 42.8046 3.16918 41.9664C3.21749 41.1715 2.60549 40.4886 1.80221 40.4409C0.998048 40.3926 0.308766 40.9987 0.260636 41.7937C0.206533 42.6891 0.178955 43.5996 0.178955 44.5012C0.178955 44.6241 0.179482 44.7468 0.180536 44.8696C0.18686 45.6619 0.837848 46.2998 1.63727 46.2998C1.64078 46.2998 1.645 46.2998 1.64886 46.2998Z" fill="black"/>
<path d="M24.0675 80.5192C23.2332 80.0399 22.4041 79.525 21.6031 78.9886C20.9366 78.5424 20.0309 78.715 19.58 79.3743C19.1289 80.0338 19.3035 80.9299 19.9698 81.3763C20.8261 81.95 21.7127 82.5005 22.6048 83.0129C22.835 83.1452 23.0863 83.2079 23.3349 83.2079C23.8373 83.2079 24.3259 82.9505 24.5963 82.4897C25.0003 81.8013 24.7635 80.919 24.0675 80.5192Z" fill="black"/>
<path d="M9.54573 66.6635C9.11678 65.9901 8.21723 65.788 7.53638 66.213C6.85571 66.6376 6.65194 67.5278 7.08108 68.2014C7.63176 69.0658 8.21987 69.9219 8.82922 70.7464C9.11449 71.1323 9.5575 71.3369 10.0061 71.3369C10.3048 71.3369 10.6058 71.2463 10.8651 71.0588C11.5145 70.5886 11.6559 69.6868 11.1808 69.0441C10.6111 68.2728 10.0609 67.4722 9.54573 66.6635Z" fill="black"/>
<path d="M17.0235 75.4423C16.3056 74.8029 15.6008 74.1304 14.929 73.4438C14.3693 72.8717 13.4473 72.8569 12.869 73.4109C12.2909 73.9647 12.276 74.8773 12.8358 75.4494C13.5539 76.1835 14.3071 76.9023 15.0744 77.5856C15.353 77.8336 15.7015 77.9557 16.0486 77.9557C16.4472 77.9557 16.8442 77.7947 17.1319 77.4785C17.6701 76.8864 17.6214 75.9749 17.0235 75.4423Z" fill="black"/>
<path d="M4.60447 28.7692C4.79278 28.8495 4.98864 28.8877 5.18133 28.8877C5.74502 28.8877 6.28201 28.562 6.5195 28.0174C6.71694 27.5651 6.92527 27.1098 7.13922 26.6645C7.48438 25.9452 7.17523 25.0854 6.44853 24.7435C5.72148 24.4019 4.8525 24.7082 4.50733 25.427C4.27863 25.9033 4.05572 26.39 3.84458 26.8739C3.52558 27.6049 3.86583 28.4533 4.60447 28.7692Z" fill="black"/>
</g>
<defs>
<clipPath id="clip0_58_26">
<rect width="89.9368" height="89" fill="white" transform="translate(0.178955)"/>
</clipPath>
</defs>
</svg>
