<svg width="24" height="24" viewBox="0 0 24 24" fill="none" xmlns="http://www.w3.org/2000/svg">
<path d="M0.625 3.875C0.625 3.01305 0.96741 2.1864 1.5769 1.5769C2.1864 0.96741 3.01305 0.625 3.875 0.625H20.125C20.987 0.625 21.8136 0.96741 22.4231 1.5769C23.0326 2.1864 23.375 3.01305 23.375 3.875V20.125C23.375 20.987 23.0326 21.8136 22.4231 22.4231C21.8136 23.0326 20.987 23.375 20.125 23.375H3.875C3.01305 23.375 2.1864 23.0326 1.5769 22.4231C0.96741 21.8136 0.625 20.987 0.625 20.125V3.875Z" fill="#00D26A"/>
<path d="M9.75905 17.6873C9.44786 17.6873 9.13667 17.5712 8.89861 17.338L4.23161 12.7538C4.11889 12.6439 4.02932 12.5125 3.96816 12.3673C3.907 12.2222 3.87549 12.0663 3.87549 11.9088C3.87549 11.7514 3.907 11.5955 3.96816 11.4504C4.02932 11.3052 4.11889 11.1738 4.23161 11.0638C4.4618 10.8394 4.77056 10.7138 5.09205 10.7138C5.41353 10.7138 5.7223 10.8394 5.95248 11.0638L9.75905 14.8022L18.0474 6.66253C18.2775 6.43811 18.5863 6.3125 18.9078 6.3125C19.2293 6.3125 19.538 6.43811 19.7682 6.66253C19.8811 6.77245 19.9707 6.90385 20.0319 7.04898C20.0932 7.1941 20.1247 7.35002 20.1247 7.50753C20.1247 7.66505 20.0932 7.82096 20.0319 7.96609C19.9707 8.11122 19.8811 8.24261 19.7682 8.35253L10.6195 17.3372C10.39 17.5627 10.0808 17.6885 9.75905 17.6873V17.6873Z" fill="#F4F4F4"/>
</svg>
