<svg width="18" height="18" viewBox="0 0 18 18" fill="none" xmlns="http://www.w3.org/2000/svg">
<path d="M17.9842 6.95233C17.9462 6.83569 17.8453 6.75063 17.7239 6.73291L11.8954 5.88587L9.28884 0.604467C9.23471 0.494277 9.12258 0.424683 9.00015 0.424683C8.87772 0.424683 8.76527 0.494277 8.71147 0.604467L6.1046 5.88619L0.276111 6.73324C0.154644 6.75096 0.0541192 6.83569 0.0157781 6.95265C-0.0219186 7.06896 0.00933424 7.1972 0.0972931 7.28258L4.31513 11.3938L3.31923 17.1991C3.29861 17.3199 3.34823 17.442 3.44714 17.5142C3.5467 17.587 3.67848 17.5963 3.78641 17.5386L9.00015 14.7981L14.2132 17.5386C14.2603 17.5635 14.3122 17.5757 14.3634 17.5757C14.4301 17.5757 14.4965 17.5551 14.5528 17.5142C14.6521 17.442 14.7017 17.3199 14.6807 17.1991L13.6852 11.3941L17.903 7.28258C17.9906 7.19655 18.0222 7.06864 17.9842 6.95233Z" fill="#FF5D88"/>
</svg>
