<svg width="50" height="40" viewBox="0 0 50 40" fill="none" xmlns="http://www.w3.org/2000/svg">
<path d="M4 18H25V21.5H4V18ZM0.5 9.25H18V12.75H0.5V9.25Z" fill="black"/>
<path d="M49.3581 19.0605L44.1081 6.8105C43.9734 6.49564 43.7491 6.22728 43.4632 6.03875C43.1773 5.85022 42.8423 5.74981 42.4999 5.75H37.2499V2.25C37.2499 1.78587 37.0655 1.34075 36.7373 1.01256C36.4091 0.684375 35.964 0.5 35.4999 0.5H7.49985V4H33.7499V25.973C32.9524 26.436 32.2546 27.0524 31.6965 27.7864C31.1385 28.5205 30.7312 29.3578 30.4984 30.25H19.5014C19.0754 28.6003 18.0625 27.1627 16.6523 26.2064C15.2422 25.2502 13.5318 24.8411 11.8416 25.0558C10.1514 25.2705 8.59757 26.0942 7.47129 27.3726C6.34501 28.651 5.72363 30.2962 5.72363 32C5.72363 33.7038 6.34501 35.349 7.47129 36.6274C8.59757 37.9058 10.1514 38.7295 11.8416 38.9442C13.5318 39.1589 15.2422 38.7498 16.6523 37.7936C18.0625 36.8373 19.0754 35.3997 19.5014 33.75H30.4984C30.879 35.2519 31.7497 36.584 32.9725 37.5356C34.1953 38.4871 35.7004 39.0037 37.2499 39.0037C38.7993 39.0037 40.3044 38.4871 41.5272 37.5356C42.7501 36.584 43.6207 35.2519 44.0014 33.75H47.7499C48.214 33.75 48.6591 33.5656 48.9873 33.2374C49.3155 32.9093 49.4999 32.4641 49.4999 32V19.75C49.4999 19.5129 49.4517 19.2783 49.3581 19.0605V19.0605ZM12.7499 35.5C12.0576 35.5 11.3809 35.2947 10.8054 34.9101C10.2298 34.5256 9.78118 33.9789 9.51627 33.3394C9.25137 32.6999 9.18206 31.9961 9.3171 31.3172C9.45215 30.6383 9.7855 30.0146 10.275 29.5251C10.7645 29.0356 11.3881 28.7023 12.067 28.5673C12.746 28.4322 13.4497 28.5015 14.0892 28.7664C14.7288 29.0313 15.2754 29.4799 15.66 30.0555C16.0446 30.6311 16.2499 31.3078 16.2499 32C16.2489 32.928 15.8799 33.8177 15.2237 34.4739C14.5675 35.13 13.6778 35.4991 12.7499 35.5V35.5ZM37.2499 9.25H41.3449L45.0969 18H37.2499V9.25ZM37.2499 35.5C36.5576 35.5 35.8809 35.2947 35.3054 34.9101C34.7298 34.5256 34.2812 33.9789 34.0163 33.3394C33.7514 32.6999 33.6821 31.9961 33.8171 31.3172C33.9522 30.6383 34.2855 30.0146 34.775 29.5251C35.2645 29.0356 35.8881 28.7023 36.567 28.5673C37.246 28.4322 37.9497 28.5015 38.5892 28.7664C39.2288 29.0313 39.7754 29.4799 40.16 30.0555C40.5446 30.6311 40.7499 31.3078 40.7499 32C40.7489 32.928 40.3799 33.8177 39.7237 34.4739C39.0675 35.13 38.1778 35.4991 37.2499 35.5ZM45.9999 30.25H44.0014C43.6159 28.751 42.7439 27.4223 41.522 26.4722C40.3002 25.5221 38.7976 25.0043 37.2499 25V21.5H45.9999V30.25Z" fill="black"/>
</svg>
