<svg width="58" height="42" viewBox="0 0 58 42" fill="none" xmlns="http://www.w3.org/2000/svg">
<path d="M10.4375 0.375C7.70245 0.375 5.07943 1.46149 3.14546 3.39546C1.21149 5.32943 0.125 7.95245 0.125 10.6875V12.75H57.875V10.6875C57.875 7.95245 56.7885 5.32943 54.8545 3.39546C52.9206 1.46149 50.2975 0.375 47.5625 0.375H10.4375ZM57.875 16.875H0.125V31.3125C0.125 34.0475 1.21149 36.6706 3.14546 38.6045C5.07943 40.5385 7.70245 41.625 10.4375 41.625H47.5625C50.2975 41.625 52.9206 40.5385 54.8545 38.6045C56.7885 36.6706 57.875 34.0475 57.875 31.3125V16.875ZM39.3125 29.25H47.5625C48.1095 29.25 48.6341 29.4673 49.0209 29.8541C49.4077 30.2409 49.625 30.7655 49.625 31.3125C49.625 31.8595 49.4077 32.3841 49.0209 32.7709C48.6341 33.1577 48.1095 33.375 47.5625 33.375H39.3125C38.7655 33.375 38.2409 33.1577 37.8541 32.7709C37.4673 32.3841 37.25 31.8595 37.25 31.3125C37.25 30.7655 37.4673 30.2409 37.8541 29.8541C38.2409 29.4673 38.7655 29.25 39.3125 29.25Z" fill="black"/>
</svg>
