<svg width="41" height="48" viewBox="0 0 41 48" fill="none" xmlns="http://www.w3.org/2000/svg">
<path d="M21.1625 16.7204L15.8183 11.3542H28.2292V19.0833H31.5417V8.04167H15.8183L21.1625 2.67542L18.8217 0.3125L9.45833 9.69792L18.8217 19.0833L21.1625 16.7204ZM20.5 27.9167C19.1897 27.9167 17.9088 28.3052 16.8193 29.0332C15.7299 29.7611 14.8807 30.7958 14.3793 32.0064C13.8779 33.217 13.7467 34.549 14.0023 35.8341C14.2579 37.1193 14.8889 38.2997 15.8154 39.2263C16.7419 40.1528 17.9224 40.7837 19.2075 41.0394C20.4927 41.295 21.8247 41.1638 23.0353 40.6624C24.2458 40.1609 25.2805 39.3118 26.0085 38.2223C26.7364 37.1328 27.125 35.852 27.125 34.5417C27.125 32.7846 26.427 31.0995 25.1846 29.8571C23.9422 28.6147 22.2571 27.9167 20.5 27.9167ZM0.625 21.2917V47.7917H40.375V21.2917M35.9583 38.9583C34.787 38.9583 33.6636 39.4237 32.8353 40.2519C32.007 41.0802 31.5417 42.2036 31.5417 43.375H9.45833C9.45833 42.2036 8.99301 41.0802 8.16472 40.2519C7.33644 39.4237 6.21304 38.9583 5.04167 38.9583V30.125C6.21304 30.125 7.33644 29.6597 8.16472 28.8314C8.99301 28.0031 9.45833 26.8797 9.45833 25.7083H31.5417C31.5417 26.8797 32.007 28.0031 32.8353 28.8314C33.6636 29.6597 34.787 30.125 35.9583 30.125V38.9583Z" fill="black"/>
</svg>
